<svg xmlns="http://www.w3.org/2000/svg" viewBox="0 0 64 64" role="img" aria-label="Questions and answers">
  <path fill="#A54532" d="M8 10h39a6 6 0 0 1 6 6v25a6 6 0 0 1-6 6H25L14 56v-9H8a6 6 0 0 1-6-6V16a6 6 0 0 1 6-6Z"/>
  <path fill="#5A3828" d="M35 38h20a6 6 0 0 1 6 6v8a6 6 0 0 1-6 6H45l-7 5v-5h-3a6 6 0 0 1-6-6v-8a6 6 0 0 1 6-6Z"/>
  <text x="21.5" y="39" fill="#EFE4BD" font-family="Georgia, 'Times New Roman', serif" font-size="31" font-weight="700" text-anchor="middle">?</text>
  <g fill="#EFE4BD">
    <circle cx="41" cy="48" r="2"/>
    <circle cx="48" cy="48" r="2"/>
    <circle cx="55" cy="48" r="2"/>
  </g>
</svg>
